<svg xmlns="http://www.w3.org/2000/svg" width="129" height="129" viewBox="0 0 129 129">
  <g id="Group_160561" data-name="Group 160561" transform="translate(0 0.037)">
    <rect id="Rectangle_63" data-name="Rectangle 63" width="129" height="129" transform="translate(0 -0.037)" fill="#01fbc0"></rect>
    <path id="Path_31136" data-name="Path 31136" d="M13.837-103.287,12.274-92.356A7.592,7.592,0,0,1,17.2-94.5a6.044,6.044,0,0,1,4.816,2.319,8.758,8.758,0,0,1,1.944,5.826,10.221,10.221,0,0,1-3.107,7.57q-3.107,3.069-8.578,3.069A45.248,45.248,0,0,1,4.614-76.3l3.81-26.986ZM11.668-87.952l-1.114,7.735a12.905,12.905,0,0,0,1.817.136q5.94,0,5.94-6.04a4.626,4.626,0,0,0-.84-2.913,2.7,2.7,0,0,0-2.247-1.081Q13.407-90.115,11.668-87.952ZM34.951-94.5a9.094,9.094,0,0,1,6.487,2.367,8.073,8.073,0,0,1,2.521,6.167,9.874,9.874,0,0,1-2.98,7.287,10,10,0,0,1-7.337,2.962,9.066,9.066,0,0,1-6.516-2.533,8.246,8.246,0,0,1-2.648-6.2,9.494,9.494,0,0,1,3.087-7.083A10.277,10.277,0,0,1,34.951-94.5Zm-1.27,14.4a3.948,3.948,0,0,0,3.361-1.88,7.089,7.089,0,0,0,1.309-4.141,4.146,4.146,0,0,0-1-2.893,3.387,3.387,0,0,0-2.638-1.1,3.854,3.854,0,0,0-3.41,1.939,7.393,7.393,0,0,0-1.241,4.043A3.977,3.977,0,0,0,31.161-81.2,3.454,3.454,0,0,0,33.681-80.1ZM52.764-94.188l-.313,2.046A10.007,10.007,0,0,1,58.645-94.5,4.564,4.564,0,0,1,62.3-93.028a6.109,6.109,0,0,1,1.27,4.121,12.1,12.1,0,0,1-.117,1.637l-1.563,11.2H56.476L58-86.881a5.664,5.664,0,0,0,.078-.935q0-2.689-1.68-2.689-1.934,0-4.553,2.786L50.2-76.067H44.791l2.579-18.121Zm21.447-9.1-3.849,27.22H64.968l3.83-27.22Zm2.1,4.072a2.679,2.679,0,0,1,.821-1.968A2.694,2.694,0,0,1,79.107-102a2.717,2.717,0,0,1,1.993.818,2.679,2.679,0,0,1,.821,1.968,2.7,2.7,0,0,1-.821,1.987,2.717,2.717,0,0,1-1.993.818,2.694,2.694,0,0,1-1.973-.818A2.7,2.7,0,0,1,76.313-99.215ZM81.2-94.188l-2.56,18.121H73.225l2.56-18.121Zm17.519-8.534-.606,4.345a6.85,6.85,0,0,0-3.029-.877q-3.576,0-3.927,5.066h3.478l-.567,3.994H90.549L87.423-68.117H82.03l3.126-22.076H81.463l.567-3.994h3.713a11.827,11.827,0,0,1,2.833-7.044,7.676,7.676,0,0,1,5.784-2.406A11.718,11.718,0,0,1,98.717-102.722Zm11.794,18.355H98.631a4.221,4.221,0,0,0,.977,3.41,4.128,4.128,0,0,0,3.185,1.266,19.949,19.949,0,0,0,6.722-1.851l-.957,4.52a18.5,18.5,0,0,1-6.311,1.305,9.036,9.036,0,0,1-6.585-2.4,8.536,8.536,0,0,1-2.462-6.41,9.688,9.688,0,0,1,2.872-7.063,9.408,9.408,0,0,1,6.956-2.913,7.7,7.7,0,0,1,5.657,2.095,7.419,7.419,0,0,1,2.12,5.524A11.468,11.468,0,0,1,110.511-84.367ZM99.158-87.485h6.35a3.793,3.793,0,0,0,.059-.662,2.61,2.61,0,0,0-.723-1.919,2.6,2.6,0,0,0-1.934-.731Q100.311-90.8,99.158-87.485Z" transform="translate(6.612 150.198)" fill="#0c1c3e"></path>
  </g>
</svg>