<svg xmlns="http://www.w3.org/2000/svg" width="300.233" height="100.429" viewBox="0 0 300.233 100.429">
  <path id="Path_31139" data-name="Path 31139" d="M30.69-102.646,26.27-71.741q7.016-6.06,13.922-6.06A17.088,17.088,0,0,1,53.81-71.245q5.5,6.556,5.5,16.472a28.9,28.9,0,0,1-8.784,21.4q-8.784,8.677-24.252,8.677A127.931,127.931,0,0,1,4.614-26.347l10.773-76.3ZM24.558-59.29,21.409-37.42a36.487,36.487,0,0,0,5.138.386q16.794,0,16.794-17.078a13.08,13.08,0,0,0-2.376-8.236,7.636,7.636,0,0,0-6.353-3.057Q29.474-65.405,24.558-59.29ZM90.387-77.8q11.215,0,18.341,6.693t7.127,17.436a27.916,27.916,0,0,1-8.425,20.6,28.281,28.281,0,0,1-20.744,8.374,25.634,25.634,0,0,1-18.424-7.162,23.313,23.313,0,0,1-7.486-17.519A26.843,26.843,0,0,1,69.5-69.4,29.057,29.057,0,0,1,90.387-77.8ZM86.8-37.089q5.8,0,9.5-5.316A20.043,20.043,0,0,0,100-54.112a11.723,11.723,0,0,0-2.817-8.181,9.575,9.575,0,0,0-7.458-3.113,10.9,10.9,0,0,0-9.64,5.481,20.9,20.9,0,0,0-3.508,11.431A11.244,11.244,0,0,0,79.67-40.2,9.765,9.765,0,0,0,86.8-37.089Zm53.952-39.83-.884,5.784q8.563-6.666,17.513-6.666,6.74,0,10.331,4.159T171.3-61.99a34.194,34.194,0,0,1-.331,4.628l-4.42,31.677h-15.3l4.309-30.575a16.016,16.016,0,0,0,.221-2.644q0-7.6-4.751-7.6-5.469,0-12.872,7.878l-4.641,32.944h-15.3L125.5-76.919Zm60.637-25.727L190.5-25.686H175.254l10.828-76.96Zm5.944,11.514a7.575,7.575,0,0,1,2.32-5.564,7.618,7.618,0,0,1,5.58-2.314,7.683,7.683,0,0,1,5.635,2.314,7.576,7.576,0,0,1,2.32,5.564,7.639,7.639,0,0,1-2.32,5.619,7.683,7.683,0,0,1-5.635,2.314,7.618,7.618,0,0,1-5.58-2.314A7.639,7.639,0,0,1,207.329-91.132ZM221.14-76.919,213.9-25.686H198.6l7.237-51.233Zm49.532-24.129L268.96-88.763a19.366,19.366,0,0,0-8.563-2.479q-10.11,0-11.1,14.323h9.834l-1.6,11.293H247.58L238.741-3.209H223.494l8.839-62.417H221.891l1.6-11.293h10.5q1.492-13.111,8.01-19.915a21.7,21.7,0,0,1,16.352-6.8A33.131,33.131,0,0,1,270.673-101.048Zm33.346,51.895H270.429q-.552,6.06,2.762,9.641a11.671,11.671,0,0,0,9,3.581q6.3,0,19-5.233l-2.707,12.781q-10,3.691-17.844,3.691-11.657,0-18.617-6.776t-6.961-18.125a27.39,27.39,0,0,1,8.121-19.97A26.6,26.6,0,0,1,282.859-77.8q10,0,15.993,5.922t5.994,15.618A32.425,32.425,0,0,1,304.018-49.154Zm-32.1-8.814h17.955a10.725,10.725,0,0,0,.166-1.873A7.38,7.38,0,0,0,288-65.268a7.348,7.348,0,0,0-5.469-2.066Q275.18-67.334,271.921-57.968Z" transform="translate(-4.614 103.638)" fill="#fff"></path>
</svg>